<?xml version="1.0" encoding="UTF-8"?>
<svg id="Layer_1" data-name="Layer 1" xmlns="http://www.w3.org/2000/svg" version="1.1" viewBox="0 0 1080 1080">
  <defs>
    <style>
      .cls-1 {
        fill: #000;
        stroke-width: 0px;
      }
    </style>
  </defs>
  <path class="cls-1" d="M367,201.2l-38.8-68.6,13.2-5.7,30.4,58.1,1.4-.6-12.7-44.1,11.9-5.1,1.7,15.7-2,.9,13.2,41.6-18.2,7.9ZM393.9,189.6l-21.3-38.1-2,.9-10.1-12,11.9-5.1,23.3,39.5,1.4-.6-21.5-61.9,13.2-5.7,23.4,75.2-18.2,7.9Z"/>
  <path class="cls-1" d="M453.9,171.4c-9.8,2.4-18,1.7-24.6-2s-11.1-10.4-13.4-20c-2.3-9.3-1.8-17.1,1.5-23.3,3.3-6.3,9.1-10.4,17.4-12.4,8.1-2,15-1.2,20.6,2.5,5.6,3.7,9.5,10,11.7,19.1.6,2.6,1.1,5,1.5,7.4l-41.7,10.2-2.5-10.1,27.8-6.8c-.9-3.8-2.6-6.5-5.1-8.1-2.4-1.6-5.4-1.9-8.9-1-3.8.9-6.4,3-7.8,6.2-1.4,3.2-1.5,7.3-.3,12.3,1.3,5.4,3.9,9.1,7.6,11.1,3.8,2,8.5,2.3,14.2.9,2.6-.6,5.1-1.4,7.5-2.3,2.4-.9,4.9-1.9,7.4-3l4.8,13.4c-3.5,1.5-6.7,2.8-9.7,3.7-3,.9-5.6,1.7-7.9,2.2Z"/>
  <path class="cls-1" d="M486.4,163.4l-6.2-82.5,14.9-1.1,6.1,81.5-14.8,2.1ZM503,163.3c-2.8.2-5.5.3-8.3.3-2.7,0-5.5,0-8.4-.2l4.3-15.2c2,.8,4.2,1.2,6.6,1.1,2.4,0,4.7-.1,7-.3,6.1-.5,10.7-2.6,13.8-6.3,3.1-3.8,4.4-8.8,3.9-15.2-.3-4-1.5-6.9-3.5-9-2-2-4.7-2.9-8.1-2.6-8.4.6-12.2,5.1-11.6,13.5l-4.5-14.7,5-.4c.4-7.9,4.7-12.1,13-12.7,7.3-.5,13.2,1.3,17.5,5.6,4.4,4.3,6.9,10.6,7.5,19.1.8,10.8-1.8,19.5-7.7,25.9-6,6.4-14.8,10.1-26.5,11Z"/>
  <path class="cls-1" d="M610.9,166.2l19.8-75.8,14.1,3.7-19.8,75.8-14.1-3.7ZM624.2,169.7l3.5-13.5,5.9,1.6c6.9,1.8,12.7,1.2,17.2-1.9,4.5-3.1,7.8-8.4,9.8-16.1,2.2-8.4,2.1-15.2-.2-20.4-2.3-5.2-7-8.7-13.9-10.5l-5.7-1.5,2.2-13.8,7,1.8c23.7,6.2,32.2,22.3,25.4,48.3-6.4,24.6-21.5,33.7-45.2,27.5l-5.9-1.6Z"/>
  <path class="cls-1" d="M699.5,196.7c-9.2-4.2-15.3-9.8-18.2-16.8-2.9-7-2.3-15,1.7-24,3.9-8.7,9.1-14.5,15.6-17.4s13.6-2.6,21.3.9c7.6,3.4,12.5,8.3,14.6,14.6,2.1,6.3,1.3,13.8-2.5,22.3-1.1,2.4-2.2,4.7-3.4,6.8l-39.1-17.6,4.3-9.5,26.1,11.7c1.6-3.6,1.9-6.8,1-9.5-1-2.7-3.1-4.8-6.4-6.3-3.6-1.6-6.9-1.6-10,0-3.1,1.6-5.7,4.8-7.8,9.5-2.3,5-2.5,9.5-.8,13.4,1.7,3.9,5.3,7.1,10.6,9.5,2.4,1.1,4.9,2,7.3,2.8,2.5.8,5,1.5,7.7,2.2l-4.5,13.5c-3.7-.9-7-2-9.9-3.1-2.9-1.1-5.4-2.1-7.6-3.1Z"/>
  <path class="cls-1" d="M742.8,219l15.9-59.7,12.7,8.5-13.7,45.4.8.6,36.8-30,12.7,8.5-49.2,37.5-16-10.7Z"/>
  <path class="cls-1" d="M802.6,267.5c-7.4-6.9-11.3-14.2-11.7-21.8-.4-7.6,2.7-15,9.5-22.1,6.6-7,13.4-10.8,20.4-11.4,7-.6,13.7,2,19.9,7.8,6.1,5.7,9.1,11.9,9.1,18.6,0,6.7-3.2,13.4-9.6,20.2-1.8,1.9-3.6,3.7-5.4,5.3l-31.3-29.4,7.1-7.6,20.8,19.6c2.7-2.9,4-5.8,4-8.7,0-2.9-1.3-5.6-4-8.1-2.8-2.7-6-3.7-9.5-3.2-3.5.5-7,2.7-10.5,6.4-3.8,4-5.5,8.2-5.1,12.4.4,4.3,2.7,8.4,7,12.5,1.9,1.8,3.9,3.5,6,5.1,2.1,1.6,4.2,3.1,6.5,4.6l-8.6,11.3c-3.2-2.1-6-4.1-8.3-6.1-2.4-2-4.4-3.8-6.2-5.4Z"/>
  <path class="cls-1" d="M846.5,317.9c-4.5-5.9-6.1-11.3-4.8-16.3,1.2-5,5.4-10.3,12.5-15.7l46.4-35.4,9,11.9-46,35c-1.9,1.5-3.4,2.9-4.3,4.2-.9,1.3-1.2,2.8-.9,4.4s1.3,3.6,3.1,5.9c2,2.6,5,5.4,9.1,8.5l-11.2,10.7c-2.5-2-4.8-4-6.9-6.1-2.1-2.1-4.1-4.5-6.1-7.1ZM879.7,245.7l10.9-8.3,10.6,14-10.9,8.3-10.6-14Z"/>
  <path class="cls-1" d="M875,363.9c-3.9-7.5-4.6-14.5-2.1-21,2.5-6.6,8.1-12.1,16.6-16.6,8.6-4.5,16.3-5.9,23.1-4.3,6.8,1.6,12.2,6.2,16.1,13.6,3.9,7.5,4.6,14.5,2.1,21-2.5,6.6-8,12.1-16.6,16.6-8.5,4.5-16.2,5.9-23.1,4.3-6.8-1.6-12.2-6.2-16.2-13.6ZM887.6,357.3c1.7,3.2,4.2,5,7.6,5.4,3.4.4,7.4-.6,11.9-3,4.6-2.4,7.7-5.1,9.2-8.2s1.5-6.1-.2-9.3c-1.7-3.2-4.2-5-7.6-5.4-3.4-.4-7.4.6-12,3-4.6,2.4-7.6,5.1-9.2,8.2-1.6,3.1-1.5,6.2.1,9.3Z"/>
  <path class="cls-1" d="M868.7,405.7l79.7-26.2,4.3,13.2-11.4,4.9-67.9,22.3-4.7-14.2ZM901.3,427.2c-1.3-3.9-1.4-7.3-.3-10.2,1.1-3,3.4-5.3,6.9-7.1l-1.6-4.9,18.9-2c-5.4,1.8-9,3.9-10.9,6.3-1.9,2.4-2.2,5.6-.9,9.6,1.2,3.7,3.4,6.1,6.6,7.1,3.2,1.1,7.4.7,12.5-.9,4.9-1.6,8.4-3.9,10.5-6.7,2.1-2.8,2.5-6.1,1.3-9.7-1.2-3.6-3.3-5.9-6.4-6.9-3.1-1-7.3-.6-12.7,1.2l16.7-9.1,1.3,4.1c4-.6,7.2,0,9.8,1.5,2.6,1.6,4.5,4.5,5.9,8.7,2.3,7,1.5,13.2-2.2,18.7-3.8,5.5-10.3,9.7-19.4,12.8-9.3,3-17,3.5-23.2,1.3-6.2-2.2-10.5-6.7-12.7-13.6Z"/>
  <path class="cls-1" d="M914.8,487.3c-1.5-10-.1-18.1,4.3-24.4s11.4-10.1,21.1-11.6c9.5-1.4,17.2-.2,23.1,3.6s9.6,10,10.8,18.4c1.3,8.3-.2,15-4.3,20.2-4.2,5.2-10.8,8.6-20.1,10-2.6.4-5.1.7-7.5.8l-6.4-42.4,10.3-1.6,4.3,28.3c3.9-.6,6.7-2,8.5-4.3,1.8-2.3,2.4-5.2,1.8-8.8-.6-3.9-2.4-6.6-5.5-8.3-3.1-1.7-7.1-2.2-12.2-1.4-5.5.8-9.4,3-11.7,6.6-2.4,3.6-3.1,8.3-2.2,14.1.4,2.6.9,5.2,1.6,7.7.7,2.5,1.4,5,2.3,7.6l-13.7,3.5c-1.2-3.6-2.1-6.9-2.8-10-.6-3-1.1-5.7-1.5-8.1Z"/>
  <path class="cls-1" d="M919.9,515.6l12.8.2-.7,40.9-12.8-.2.7-40.9ZM919.7,528l58.5.9-.2,12.7-16.8,1.9-41.7-.7.2-14.9ZM944.7,543.3l20.2-3.1v5c9.4.7,14.1,5.8,14,15.2,0,5.6-2.2,9.8-6.3,12.7-4.1,2.9-10,4.3-17.7,4.2l.2-14.9c3.5,0,5.9-.5,7.5-1.8,1.5-1.2,2.3-3.3,2.4-6.1,0-3.6-1.7-6.4-5.2-8.2s-8.5-2.8-15-2.9ZM965.6,518.6l12.8.2-.4,22.1-12.8.9.4-23.2Z"/>
  <path class="cls-1" d="M896,668.4c.9-2.6,2.7-4.5,5.2-5.7,2.5-1.2,5.1-1.3,7.7-.3,2.6.9,4.5,2.7,5.7,5.2,1.2,2.5,1.3,5.1.3,7.7-.9,2.6-2.7,4.5-5.2,5.7-2.5,1.2-5.1,1.3-7.7.3-2.6-.9-4.5-2.7-5.7-5.2-1.2-2.5-1.3-5.1-.4-7.7Z"/>
  <path class="cls-1" d="M850.7,759.3l61,49.2-9.1,11.3-61-49.2,9.1-11.3ZM873.4,777.7l10.5,8.5-26.9,33.4-10.5-8.5,26.9-33.4ZM901.2,800.1l10.4,8.4-33.7,41.8-10.4-8.4,33.7-41.8Z"/>
  <path class="cls-1" d="M784.9,829.4l10.1,9.8,6.8,7.7-11.2,9.9-6.9-7.8-6.8,4.4-8.1-9.1,16.1-15ZM797,841.5l27.9,31.3-11.2,9.9-25.7-28.9,9-12.4ZM797.7,817.2c4.2-3.7,8.6-5.2,13.3-4.5,4.7.7,9.3,3.5,13.7,8.5l25.7,28.9-11.2,9.9-23.2-26.1c-2.2-2.5-4.5-3.9-6.9-4.3s-4.5.4-6.5,2.2c-2.6,2.3-3.7,5.1-3.2,8.3.5,3.2,2.8,7.2,7,11.9l-15.2-12.6,3.4-3c-2-3.6-2.6-7-2.1-10.4s2.3-6.3,5.2-8.9Z"/>
  <path class="cls-1" d="M733.7,865.2c6.2-3.9,11.8-5,16.7-3.3,4.9,1.7,9.7,6.3,14.5,13.8l31.1,49.4-12.6,7.9-30.8-49c-1.3-2.1-2.6-3.6-3.8-4.6-1.3-1-2.7-1.5-4.3-1.3-1.6.2-3.7,1-6.1,2.6-2.7,1.7-5.8,4.5-9.3,8.3l-9.6-12.1c2.2-2.3,4.5-4.5,6.7-6.3,2.3-1.9,4.8-3.7,7.6-5.4ZM802.7,904.7l7.3,11.6-14.9,9.3-7.3-11.6,14.9-9.3Z"/>
  <path class="cls-1" d="M677.4,892.8c6.8-2.8,12.5-3,17-.5,4.6,2.5,8.6,7.8,12,16.1l22.4,53.9-13.8,5.7-22.2-53.4c-.9-2.2-1.9-4-3-5.2-1.1-1.2-2.4-1.9-4.1-2-1.6-.1-3.8.4-6.5,1.5-3,1.2-6.5,3.5-10.5,6.6l-7.5-13.5c2.6-1.9,5.1-3.7,7.7-5.1,2.5-1.5,5.3-2.8,8.4-4.1ZM738.8,943.2l5.3,12.7-16.2,6.7-5.3-12.7,16.2-6.7Z"/>
  <path class="cls-1" d="M566.3,917.5c4.4-.3,8.8-.2,13,.3,4.2.5,8,1.3,11.4,2.5l-1.1,15c-4.1-1.4-8.2-2.5-12.3-3.2-4-.7-7.7-.9-11.1-.7-3.9.2-6.9,1.1-8.9,2.6-2,1.5-2.9,3.6-2.8,6.2.2,3.4,2.5,6,6.9,7.8l11.6,4.8c5.7,2.4,10.2,5.5,13.5,9.3,3.3,3.8,5.1,8.1,5.4,13,.4,6.8-1.5,12.3-5.8,16.3s-10.6,6.3-18.8,6.8c-4.8.3-9.4-.3-13.8-1.7-4.4-1.4-8.4-3.6-11.9-6.6l9.3-12.1c2.7,2.3,5.3,4,8,5.1,2.7,1.1,5.2,1.6,7.6,1.5,3.2-.2,5.7-1,7.4-2.5,1.7-1.5,2.5-3.5,2.3-6.1-.1-1.7-.8-3.3-2.2-4.8s-3.3-2.7-5.7-3.9l-10.9-4.8c-5.7-2.5-10.1-5.6-13.4-9.2-3.2-3.6-5-7.6-5.2-12-.4-6.9,1.7-12.4,6.5-16.5,4.8-4.1,11.8-6.4,21-7Z"/>
  <path class="cls-1" d="M526.1,965.1l-1.4,13.7-54.6-5.6,1.4-13.7,54.6,5.6ZM488.4,915.1c10,1,17.1,3.8,21.1,8.3,4.1,4.5,5.6,11.2,4.7,20l-.8,7.6-14.8-1.5.6-6.1c.5-4.4-.4-7.8-2.4-10-2.1-2.2-5.7-3.6-11-4.2-1.7-.2-3.5-.3-5.4-.3s-4.2,0-6.6.1v-14c2.6-.2,5-.3,7.3-.3,2.3,0,4.8.2,7.4.4ZM513.8,947.5l-4.9,47.4-14.8-1.5,4.9-47.4,14.8,1.5Z"/>
  <path class="cls-1" d="M428.6,902.5l-3.4,17-1.8,7.4-3,11c-.8,3-.2,5.6,2,7.7,2.2,2.1,5.8,3.9,10.8,5.5l14.3,4.3-4.7,12.8-12.2-3.6c-10.2-3-17.2-7.1-21.1-12.3-3.9-5.3-4.8-11.6-2.8-19l5.8-20.8-7.5-3.3,3.2-11.7,20.4,5ZM447.8,907.2c6,1.7,10.2,4.4,12.8,8.3,2.5,3.9,3,8.5,1.5,13.9-1.7,6.3-5.3,10.5-10.5,12.7-5.3,2.2-11.9,2.1-20,0-3.1-.9-5.7-1.7-7.9-2.7-2.2-.9-4.3-2.1-6.4-3.4l5.4-10.6c2.1,1.2,4.1,2,5.9,2.6,1.8.6,3.7,1.2,5.7,1.7,7.4,2.1,11.8,1,12.9-3.3.5-1.9.3-3.6-.8-4.9-1.1-1.4-2.9-2.4-5.5-3.1-3.1-.9-5.9-1-8.3-.4-2.4.6-4.4,1.6-5.9,3.2-1.5,1.5-2.6,3.2-3.1,5.2l-1,3.5,2-15,4.5,1.2-2.3,1.2c1-3.2,2.5-5.7,4.5-7.5,2-1.8,4.4-2.9,7.2-3.3,2.8-.4,5.9-.1,9.4.9Z"/>
  <path class="cls-1" d="M374,880.2c9.6,4.5,16,10.3,19,17.6,3.1,7.2,2.5,15.3-1.7,24.2-4,8.7-9.6,14.3-16.6,16.8s-15,1.8-23.9-2.4c-5.5-2.5-9.7-5.8-12.6-9.8-2.9-4-4.3-8.3-4.1-12.9l13.4-3.2c.4,3,1.4,5.6,3.1,7.9,1.7,2.3,3.9,4.1,6.6,5.3,4.2,2,8.1,2.3,11.6,1,3.5-1.3,6.3-4.2,8.4-8.7,2.3-5,2.6-9.5.7-13.5-1.8-4-5.6-7.3-11.2-10-2.4-1.1-4.8-2.1-7.3-3-2.5-.9-5-1.6-7.4-2.3l4.5-13.3c3,.7,6,1.6,8.9,2.7,3,1.1,5.8,2.3,8.5,3.6Z"/>
  <path class="cls-1" d="M326.5,879l-8,11.7-5.5-3.8c-3.6-2.5-7-3.9-10.2-4.2-3.2-.3-6.4.5-9.7,2.4-3.3,1.9-6.9,5-10.7,9.3l-12.7-8.7c8.5-9.5,16.8-15.3,24.9-17.3,8.1-2,16.2-.2,24.2,5.3l7.7,5.3ZM345.9,867.1l-46.9,68.2-12.3-8.5,46.9-68.2,12.3,8.5ZM314.4,845.5l-4.3,31.6-13.6-3.8,3.3-37.8,14.6,10Z"/>
  <path class="cls-1" d="M197.7,824.6l-10.8,8-32-43.2,10.8-8,32,43.2ZM249.9,785.9l-63,46.6-8.7-11.7,63-46.6,8.7,11.7ZM223.7,805.3l-10.8,8-26.1-35.2,10.8-8,26.1,35.2ZM249.9,785.9l-10.8,8-32-43.2,10.8-8,32,43.2Z"/>
  <path class="cls-1" d="M197.2,703.4l-30.6,15.6c-3.1,1.6-5.2,3.5-6.3,5.7-1,2.2-1,4.4.3,6.8,3.4,6.7,9.9,7.6,19.6,2.7l-15.1,11.5-2.2-4.3c-3.8,1.3-7,1.4-9.7.4s-5-3.5-7-7.3c-2.8-5.5-3.3-10.6-1.5-15.3,1.8-4.7,5.8-8.6,11.9-11.7l33.9-17.3,6.8,13.3ZM212.9,734.2l-52.1,26.6-6.1-11.9,10.3-7,41.1-21,6.8,13.3Z"/>
  <path class="cls-1" d="M210,668l-12.3,4.4-6.1-17.7c-1.7-4.9-4.2-8-7.4-9.4s-7.4-1.3-12.4.3l-40.7,12.8-12.1,2.7-4.2-13.2,50.8-16c9.9-3.1,18-3.1,24.2,0,6.2,3.2,11.1,9.8,14.6,19.9l5.7,16.2ZM180.7,659.1c2.2,6.9,1.4,13.1-2.4,18.5-3.8,5.4-10.3,9.6-19.6,12.5-9.2,2.9-17,3.2-23.2,1-6.3-2.3-10.5-6.9-12.7-13.9-1.3-4.2-1.4-7.8-.3-10.5,1.2-2.8,3.5-5.1,7-6.9l-1.3-4.1,18.9-2.3c-5.4,1.7-9.1,3.8-11,6.4-1.9,2.6-2.3,5.7-1.2,9.4,1.1,3.6,3.4,6,6.7,7.1,3.3,1.1,7.5.9,12.4-.7,5.1-1.6,8.7-3.8,10.7-6.5,2-2.7,2.4-6,1.2-9.7-1.3-4.1-3.4-6.5-6.4-7.3-3-.8-7.1-.4-12.5,1.3l16.5-9.4,1.6,4.9c3.9-.6,7.1,0,9.7,1.7,2.6,1.8,4.5,4.6,5.7,8.5Z"/>
  <path class="cls-1" d="M97.9,598.4c.4,2.8-.2,5.2-1.7,7.2-1.5,2-3.7,3.2-6.5,3.6-2.8.4-5.2-.2-7.2-1.7-2-1.5-3.2-3.7-3.6-6.5-.4-2.8.2-5.2,1.7-7.2,1.5-2,3.7-3.2,6.5-3.6,2.8-.4,5.2.2,7.2,1.7,2,1.5,3.2,3.7,3.6,6.5ZM122.8,620.3l-13.7,1.9-4.6-32.9,13.7-1.9,4.6,32.9ZM164.6,596l-54.7,7.6-2-14.8,54.7-7.6,2,14.8ZM162.7,582.4l-13.7,1.9-2.5-18.3,13.7-1.9,2.5,18.3ZM167.6,617.5l-13.7,1.9-3.1-22.5,13.7-1.9,3.1,22.5Z"/>
  <path class="cls-1" d="M160.9,519.8l-34.4-.9c-3.5,0-6.3.6-8.2,2-2,1.4-3,3.4-3,6.1-.2,7.5,5.1,11.4,15.9,11.7l-18.8,2.9v-4.9c-3.8-.7-6.7-2.1-8.6-4.3-1.9-2.2-2.8-5.4-2.6-9.8.2-6.2,2.2-10.9,6-14.2,3.8-3.3,9.2-4.8,16-4.6l38.1,1-.4,14.9ZM160,554.4l-58.5-1.6.4-13.3,12.4-1.3,46.1,1.2-.4,14.9Z"/>
  <path class="cls-1" d="M169.5,462.7c-1.9,9.9-6,17.1-12.2,21.5s-14.1,5.7-23.8,3.8c-9.4-1.8-16.2-5.6-20.5-11.2-4.3-5.6-5.6-12.6-4-21,1.6-8.2,5.2-14.1,10.9-17.6,5.7-3.5,13.1-4.4,22.3-2.6,2.6.5,5.1,1.1,7.4,1.8l-8.2,42.1-10.2-2,5.5-28.1c-3.9-.8-7-.3-9.5,1.2-2.4,1.6-4,4.1-4.7,7.7-.7,3.8,0,7.1,2.4,9.7,2.3,2.6,6,4.5,11,5.4,5.4,1.1,9.8.3,13.3-2.3,3.4-2.6,5.7-6.7,6.8-12.5.5-2.6.9-5.2,1.1-7.8.2-2.6.4-5.2.4-8l14.1,1.3c0,3.8-.3,7.2-.7,10.3-.4,3.1-.8,5.8-1.3,8.1Z"/>
  <path class="cls-1" d="M187.3,402.5c-3.6,9.5-8.8,15.9-15.6,19.2-6.8,3.3-14.9,3.3-24.1-.2-9-3.4-15.1-8.2-18.4-14.4-3.3-6.3-3.5-13.4-.5-21.4,2.9-7.8,7.5-13,13.7-15.5,6.2-2.5,13.6-2.2,22.4,1.1,2.5.9,4.8,1.9,7,3l-15.1,40.2-9.7-3.7,10.1-26.8c-3.7-1.4-6.9-1.5-9.5-.4-2.7,1.1-4.6,3.4-5.9,6.8-1.4,3.6-1.1,7,.7,10,1.8,3,5.2,5.4,9.9,7.2,5.2,1.9,9.6,1.9,13.5,0,3.8-2,6.7-5.7,8.8-11.2.9-2.5,1.7-5,2.4-7.5.6-2.5,1.2-5.1,1.7-7.8l13.7,3.6c-.7,3.7-1.5,7.1-2.4,10.1-.9,3-1.8,5.6-2.6,7.8Z"/>
  <path class="cls-1" d="M158.4,350.4l-11.1-6.4,11.1-19.1,11.6,5.5-11.6,20ZM203,364.5l-50.6-29.4,6.4-11,15.6,6.5,36.1,21-7.5,12.9ZM188.7,339l-19.1-7.2,2.5-4.3c-7.9-5.3-9.6-12-4.8-20.1,2.8-4.8,6.7-7.5,11.7-8,5-.5,10.9,1.2,17.5,5l-7.5,12.9c-3-1.7-5.5-2.4-7.4-2.1-1.9.3-3.6,1.7-5,4.1-1.8,3.1-1.7,6.4.5,9.7,2.1,3.3,6,6.6,11.7,9.9ZM196.8,375.2l-11.1-6.4,20.6-35.4,11.1,6.4-20.6,35.4Z"/>
  <path class="cls-1" d="M292.4,253.8c-2.1,1.8-4.6,2.6-7.3,2.4-2.8-.2-5-1.4-6.9-3.4-1.8-2.1-2.6-4.5-2.4-7.3.2-2.7,1.4-5,3.5-6.9,2.1-1.8,4.5-2.6,7.3-2.4,2.8.2,5,1.4,6.9,3.5,1.8,2.1,2.6,4.5,2.4,7.3-.2,2.8-1.3,5.1-3.4,6.9Z"/>
</svg>